<?xml version="1.0" encoding="utf-8"?>
<!-- Generator: Adobe Illustrator 23.0.5, SVG Export Plug-In . SVG Version: 6.00 Build 0)  -->
<svg version="1.1" id="Layer_1" xmlns="http://www.w3.org/2000/svg" xmlns:xlink="http://www.w3.org/1999/xlink" x="0px" y="0px"
	 viewBox="0 0 500 500" style="enable-background:new 0 0 500 500;" xml:space="preserve">
<style type="text/css">
	.st0{fill:#157F06;}
	.st1{fill:#DA271F;}
	.st2{fill:#649A69;}
	.st3{fill:none;}
	.st4{fill:#CB4B19;}
</style>
<g>
	<g>
		<rect x="12.81" y="393.43" class="st0" width="478.17" height="13.53"/>
	</g>
	<g>
		<rect x="12.81" y="357.44" class="st0" width="478.17" height="26.72"/>
	</g>
	<g>
		<path class="st1" d="M30.49,353.25V229.82h18.49v123.43H30.49z M41.69,292.58v-8.52h36.27v8.52H41.69z M47.74,287.71v-7.91h20.62
			c6.7,0,11.9-1.46,15.6-4.39c3.7-2.93,5.56-7.11,5.56-12.56c0-5.33-1.94-9.42-5.82-12.26c-3.88-2.84-9.41-4.26-16.58-4.26H48.09
			l-2.13-16.52H68c12.8,0,22.7,2.71,29.69,8.13c6.99,5.42,10.49,13.14,10.49,23.16c0,8.52-3.32,15.08-9.96,19.69
			c-6.64,4.61-16.06,6.91-28.27,6.91H47.74z M47.74,353.25v-16.52h25.96c7.82,0,13.9-1.75,18.22-5.26c4.33-3.5,6.49-8.42,6.49-14.73
			c0-6.49-2.25-11.52-6.76-15.08c-4.5-3.56-10.9-5.35-19.2-5.35H48.09l-2.13-7.91h30.94c12.8,0,22.7,2.69,29.69,8.08
			c6.99,5.39,10.49,13.01,10.49,22.86c0,10.78-3.32,19.12-9.96,25.03c-6.64,5.91-16.06,8.87-28.27,8.87H47.74z"/>
	</g>
	<g>
		<path class="st2" d="M382.82,353.37V223.78h20.51v129.59H382.82z M382.82,353.37v-17.34h92.7v17.34H382.82z"/>
	</g>
	<g>
		<path class="st2" d="M324.12,354.38c-50.23,0-75.35-26.3-75.35-78.91c0-24.94,6.33-44.25,19.01-57.94
			c12.67-13.69,30.54-20.53,53.61-20.53c11.16,0,20.87,1.67,29.14,5.01c8.27,3.34,14.3,8.1,18.1,14.28l-16.85,15.85
			c-3.41-4.89-7.76-8.66-13.03-11.32c-5.28-2.66-10.98-3.99-17.13-3.99c-14.65,0-26.39,5-35.23,14.98
			c-8.84,9.99-13.26,24.18-13.26,42.58c0,40.1,18.29,60.15,54.86,60.15c11,0,21.86-2.16,32.55-6.47l5.23,18.97
			C352.57,351.94,338.69,354.38,324.12,354.38z"/>
	</g>
	<g>
		<path class="st1" d="M126.08,353.24V203.62h22.25v149.62H126.08z M168.35,292.13l-17.13-61.96h-6.45v-26.55h15.8l17.13,64.27h0.89
			l2.23,24.23H168.35z M174.81,292.13l3.34-24.23h1.33l17.13-64.27h15.8v26.55h-6.45l-17.13,61.96H174.81z M208.85,353.24V203.62
			h22.25v149.62H208.85z"/>
	</g>
	<g>
		<g>
			<polygon class="st3" points="105.38,148.59 104.53,149.83 105.61,149.2 			"/>
		</g>
		<g>
			<polygon class="st3" points="156.1,119.4 155.77,118.5 154.5,120.35 			"/>
		</g>
		<g>
			<path class="st4" d="M312.01,116.74l-7.86-21.12l15.99,9.23L312.01,116.74z M306.3,99.26l5.9,15.86l6.85-10.02l-10.44-6.03v0.19
				H306.3z M306.03,98.51h1.62l-2.07-1.19L306.03,98.51z"/>
		</g>
		<g>
			<path class="st4" d="M307.1,123.92h-24.88l-5.17-13.9l7.87-11.51h21.11l6.5,17.48L307.1,123.92z M282.74,123.17h23.96l4.98-7.29
				l-6.19-16.62h-20.19l-7.43,10.86L282.74,123.17z"/>
		</g>
		<g>
			<path class="st4" d="M345.75,123.92h-31.07l-2.99-8.04l7.79-11.4l26.37,15.22l0.98,2.64L345.75,123.92z M315.2,123.17h30.15
				l0.64-0.94l-0.75-2.02l-25.53-14.74l-7.18,10.51L315.2,123.17z"/>
		</g>
		<g>
			<path class="st4" d="M277.37,110.88l-4.6-12.37h13.06L277.37,110.88z M273.85,99.26l3.72,10l6.84-10H273.85z"/>
		</g>
		<g>
			<path class="st4" d="M268.46,123.92h-18.69l-7.36-19.76l3.86-5.65h27.3l4.32,11.61L268.46,123.92z M250.29,123.17h17.77
				l8.99-13.15l-4-10.76h-26.38l-3.42,5L250.29,123.17z"/>
		</g>
		<g>
			<path class="st4" d="M346.32,123.1l-1.48-3.98l3.01,1.74L346.32,123.1z M346.26,120.81l0.25,0.67l0.26-0.38L346.26,120.81z"/>
		</g>
		<g>
			<path class="st4" d="M283.02,123.92h-15.48l10.02-14.66L283.02,123.92z M268.97,123.17h12.97l-4.57-12.29L268.97,123.17z"/>
		</g>
		<g>
			<path class="st4" d="M315.48,123.92h-9.29l6.01-8.8L315.48,123.92z M307.62,123.17h6.79l-2.39-6.43L307.62,123.17z"/>
		</g>
		<g>
			<path class="st4" d="M347.42,123.92h-2.58l1.67-2.44L347.42,123.92z M346.26,123.17h0.08l-0.03-0.08L346.26,123.17z"/>
		</g>
		<g>
			<path class="st4" d="M363.48,154.53h-5.46L346,122.23l1.2-1.76l28.36,16.38L363.48,154.53z M358.54,153.78h4.55l11.4-16.68
				l-23.01-13.29v0.11h-4.05L358.54,153.78z M347.15,123.17h3.22l-2.94-1.7l-0.59,0.86L347.15,123.17z"/>
		</g>
		<g>
			<path class="st4" d="M158.19,123.92h-6.58l2.7-3.89l1.99-1.17L158.19,123.92z M153.02,123.17h4.08l-1.2-3.22l-1.15,0.68
				L153.02,123.17z"/>
		</g>
		<g>
			<path class="st4" d="M109.33,187.09H88.52l-3.49-9.39l0.11-0.16l16.24-23.77h6.33l8.6,23.11L109.33,187.09z M89.04,186.34h19.9
				l6.53-9.56l-8.28-22.25h-5.42l-15.91,23.28L89.04,186.34z"/>
		</g>
		<g>
			<path class="st4" d="M115.79,177.64l-8.88-23.86h25.19L115.79,177.64z M107.99,154.53l8,21.5l14.69-21.5H107.99z"/>
		</g>
		<g>
			<path class="st4" d="M131.59,154.53h-24.4l-2.05-5.5l25.91-15.28l5.2,13.97L131.59,154.53z M107.71,153.78h23.48l4.21-6.17
				l-4.75-12.76l-24.59,14.51L107.71,153.78z"/>
		</g>
		<g>
			<path class="st4" d="M150.9,187.09h-3.83l2.48-3.63L150.9,187.09z M148.49,186.34h1.33l-0.47-1.26L148.49,186.34z"/>
		</g>
		<g>
			<path class="st4" d="M120.11,187.09h-11.68l7.56-11.07L120.11,187.09z M109.85,186.34h9.18l-3.24-8.7L109.85,186.34z"/>
		</g>
		<g>
			<path class="st4" d="M135.73,148.47l-5.34-14.34l25.36-14.96L135.73,148.47z M131.32,134.46l4.61,12.39l15.68-22.93h-2.42
				L131.32,134.46z M150.46,123.17h1.66l1.12-1.64L150.46,123.17z"/>
		</g>
		<g>
			<path class="st4" d="M242.73,105.02l-2.42-6.51h6.87L242.73,105.02z M241.38,99.26l1.54,4.14l2.83-4.14H241.38z"/>
		</g>
		<g>
			<path class="st4" d="M181.69,187.09H150.1l-1.07-2.87l0.11-0.16l20.35-29.77L181.69,187.09z M150.62,186.34h29.99l-11.32-30.43
				l-19.42,28.41L150.62,186.34z"/>
		</g>
		<g>
			<path class="st4" d="M219.77,123.92h-29.52l17.37-25.41h2.69L219.77,123.92z M191.67,123.17h27.02l-8.9-23.91h-1.77
				L191.67,123.17z"/>
		</g>
		<g>
			<path class="st4" d="M189.23,126.75l-1.33-3.57h3.77L189.23,126.75z M188.98,123.92l0.45,1.21l0.82-1.21H188.98z"/>
		</g>
		<g>
			<path class="st4" d="M229.81,123.92h-10.84l-9.46-25.41h31.59l2.14,5.75L229.81,123.92z M219.49,123.17h9.92l13-19.01l-1.82-4.9
				h-29.99L219.49,123.17z"/>
		</g>
		<g>
			<path class="st4" d="M169.58,154.53h-31.59l-2.57-6.92l0.11-0.16l16.6-24.28h5.79L169.58,154.53z M138.5,153.78h29.99
				l-11.11-29.86h-4.87l-16.26,23.79L138.5,153.78z"/>
		</g>
		<g>
			<path class="st4" d="M250.56,123.92H228.9l14.03-20.52L250.56,123.92z M230.32,123.17h19.16l-6.76-18.15L230.32,123.17z"/>
		</g>
		<g>
			<path class="st4" d="M138.78,154.53h-8.1l5.25-7.67L138.78,154.53z M132.1,153.78h5.6l-1.97-5.31L132.1,153.78z"/>
		</g>
		<g>
			<path class="st4" d="M147.98,187.09h-28.67l-3.84-10.31l15.72-23h7.31l11.37,30.55L147.98,187.09z M119.83,186.34h27.76
				l1.45-2.12l-11.05-29.69h-6.39l-15.28,22.36L119.83,186.34z"/>
		</g>
		<g>
			<path class="st4" d="M269.98,178.24l-9.1-24.46h25.82L269.98,178.24z M261.96,154.53l8.22,22.09l15.1-22.09H261.96z"/>
		</g>
		<g>
			<path class="st4" d="M304.62,184.1l-11.28-30.32h32.01L304.62,184.1z M294.42,154.53l10.4,27.95l19.11-27.95H294.42z"/>
		</g>
		<g>
			<path class="st4" d="M225.15,185.95l11.46-16.77l6.16,16.55l-0.54,0c-5.4,0.04-10.91,0.11-16.36,0.2L225.15,185.95z
				 M236.42,170.8l-9.82,14.37c5.04-0.09,10.11-0.15,15.11-0.18L236.42,170.8z"/>
		</g>
		<g>
			<path class="st4" d="M405.06,193.21l-0.6-0.06c-9.06-0.89-18.24-1.72-27.29-2.45l-0.64-0.05l2.94-4.31h23.03L405.06,193.21z
				 M377.88,190c8.64,0.7,17.4,1.49,26.06,2.34l-1.95-5.25h-22.11L377.88,190z"/>
		</g>
		<g>
			<path class="st4" d="M222.79,134.19l-4.1-11.02h11.63L222.79,134.19z M219.77,123.92l3.22,8.65l5.91-8.65H219.77z"/>
		</g>
		<g>
			<path class="st4" d="M185.68,187.15l17.37-25.41l9.12,24.5l-0.52,0.01c-8.7,0.23-17.18,0.52-25.21,0.87L185.68,187.15z
				 M202.85,163.36l-15.71,22.98c7.65-0.32,15.7-0.6,23.95-0.82L202.85,163.36z"/>
		</g>
		<g>
			<path class="st4" d="M433.54,196.29l-0.61-0.07c-7.18-0.84-13.53-1.55-19.41-2.17l-0.63-0.07l5.23-7.65h11.72L433.54,196.29z
				 M414.22,193.37c5.55,0.58,11.51,1.25,18.19,2.03l-3.09-8.31h-10.8L414.22,193.37z"/>
		</g>
		<g>
			<path class="st4" d="M492.46,204.35l-1.98-0.31c-7.07-1.1-14.74-2.22-23.46-3.44l-0.22-0.03l-5.23-14.06L492.46,204.35z
				 M467.34,199.89c7.82,1.09,14.81,2.11,21.27,3.1l-25.62-14.79L467.34,199.89z"/>
		</g>
		<g>
			<path class="st4" d="M467.64,200.69l-0.62-0.09c-6.03-0.84-11.99-1.64-17.71-2.37l-0.61-0.08l9.35-13.67l4.54,2.62L467.64,200.69
				z M450.01,197.56c5.34,0.69,10.88,1.43,16.49,2.21l-4.53-12.16l-0.91-0.52h-3.9L450.01,197.56z M457.68,186.34h2.09l-1.5-0.86
				L457.68,186.34z"/>
		</g>
		<g>
			<path class="st4" d="M413.74,194.08l-0.22-0.02c-2.36-0.25-4.71-0.48-7.07-0.71l-2.23-0.22l-2.52-6.78h17.33L413.74,194.08z
				 M404.77,192.42l1.76,0.17c2.28,0.22,4.57,0.45,6.85,0.69l4.23-6.19h-14.83L404.77,192.42z"/>
		</g>
		<g>
			<path class="st4" d="M210.59,99.26h-3.48l2.25-3.3L210.59,99.26z M208.53,98.51h0.98l-0.35-0.93L208.53,98.51z"/>
		</g>
		<g>
			<path class="st4" d="M449.53,198.26l-0.23-0.03c-5.61-0.72-11.12-1.4-16.37-2.01l-0.23-0.03l-3.67-9.85h28.64L449.53,198.26z
				 M433.25,195.5c5.12,0.6,10.47,1.26,15.92,1.96l7.08-10.37h-26.14L433.25,195.5z"/>
		</g>
		<g>
			<path class="st4" d="M89.32,187.09H78.61l6.93-10.14L89.32,187.09z M80.03,186.34h8.21l-2.89-7.78L80.03,186.34z"/>
		</g>
		<g>
			<path class="st4" d="M291,147.49l-9.05-24.32h25.67L291,147.49z M283.02,123.92l8.17,21.95l15-21.95H283.02z"/>
		</g>
		<g>
			<path class="st4" d="M325.64,153.35l-11.23-30.18h31.86L325.64,153.35z M315.48,123.92l10.35,27.81l19.01-27.81H315.48z"/>
		</g>
		<g>
			<path class="st4" d="M390.66,154.53h-28.09l12.34-18.05l11.51,6.65L390.66,154.53z M363.99,153.78h25.59l-3.77-10.14l-10.68-6.16
				L363.99,153.78z"/>
		</g>
		<g>
			<path class="st4" d="M359.94,159.7l-2.21-5.92h6.26L359.94,159.7z M358.82,154.53l1.32,3.56l2.43-3.56H358.82z"/>
		</g>
		<g>
			<path class="st4" d="M231.16,154.53h-23.18l15.01-21.96L231.16,154.53z M209.4,153.78h20.68l-7.29-19.59L209.4,153.78z"/>
		</g>
		<g>
			<path class="st4" d="M273.85,99.26h-28.09l18.19-26.61L273.85,99.26z M247.18,98.51h25.59l-9.02-24.24L247.18,98.51z"/>
		</g>
		<g>
			<path class="st4" d="M256.35,141.63l-6.87-18.46h19.48L256.35,141.63z M250.56,123.92l5.99,16.09l11-16.09H250.56z"/>
		</g>
		<g>
			<path class="st4" d="M372.13,190.3l-0.58-0.04c-10.48-0.81-21-1.51-31.27-2.09l-0.66-0.04l1.21-1.78h29.83L372.13,190.3z
				 M340.98,187.44c9.87,0.56,19.97,1.24,30.03,2.01l-0.88-2.37h-28.91L340.98,187.44z"/>
		</g>
		<g>
			<path class="st4" d="M377.39,190.72l-1.21-0.1c-1.55-0.13-3.09-0.25-4.64-0.37l-0.24-0.02l-1.45-3.89h10.53L377.39,190.72z
				 M371.84,189.52c1.47,0.11,2.93,0.23,4.4,0.35l0.78,0.06l1.94-2.84h-8.03L371.84,189.52z"/>
		</g>
		<g>
			<path class="st4" d="M402.13,154.53h-12.26l-4.46-11.99l17.87,10.32L402.13,154.53z M390.38,153.78h11.35l0.46-0.68l-15.37-8.87
				L390.38,153.78z"/>
		</g>
		<g>
			<path class="st4" d="M425.51,176.86l-5.29-14.22l10.76,6.21L425.51,176.86z M421.65,164.33l4.06,10.91l4.2-6.14L421.65,164.33z"
				/>
		</g>
		<g>
			<path class="st4" d="M394.19,166.15l-4.6-12.37h13.06L394.19,166.15z M390.66,154.53l3.72,10l6.83-10H390.66z"/>
		</g>
		<g>
			<path class="st4" d="M31.84,200.29l-2.45-6.57l11.63-6.86L31.84,200.29z M30.32,194.05l1.72,4.63l6.46-9.46L30.32,194.05z"/>
		</g>
		<g>
			<path class="st4" d="M188.98,123.92h-31.59l-1.74-4.68l25.91-15.28L188.98,123.92z M157.91,123.17h29.99l-6.74-18.11
				l-24.59,14.51L157.91,123.17z"/>
		</g>
		<g>
			<path class="st4" d="M191.16,123.92h-2.98l-7.29-19.58l9.89-5.84h17.74L191.16,123.92z M188.7,123.17h2.06l16.34-23.91h-16.12
				l-9.18,5.41L188.7,123.17z"/>
		</g>
		<g>
			<path class="st4" d="M145.49,189.41l2.1-3.07h3.04l0.99,2.67l-2.35,0.15c-1,0.06-2,0.13-3,0.2L145.49,189.41z M147.98,187.09
				l-1,1.46c0.74-0.05,1.49-0.1,2.23-0.14l1.34-0.09l-0.46-1.23H147.98z"/>
		</g>
		<g>
			<path class="st4" d="M208.02,99.26h-18.5l17.28-10.2l2.89,7.76L208.02,99.26z M192.26,98.51h15.36l1.22-1.79l-2.44-6.55
				L192.26,98.51z"/>
		</g>
		<g>
			<path class="st4" d="M181,187.37l-12.03-32.31l0.87-1.27h30.25l3.28,8.82l-0.11,0.16l-16.64,24.35l-0.19,0.01
				c-1.18,0.05-2.36,0.11-3.55,0.16L181,187.37z M181.96,186.34v0.23l0.89-0.04c1.12-0.05,2.24-0.11,3.36-0.15l16.32-23.88
				l-2.96-7.97h-29.33l-0.43,0.63l11.61,31.18H181.96z"/>
		</g>
		<g>
			<path class="st4" d="M150.83,189.06l-1.01-2.72h31.59l0.37,0.99l-0.51,0.02c-10.02,0.46-20.16,1.03-30.16,1.68L150.83,189.06z
				 M150.9,187.09l0.44,1.18c6.65-0.43,13.37-0.83,20.07-1.18H150.9z"/>
		</g>
		<g>
			<path class="st4" d="M273.6,185.83l-1.41-0.02c-2.51-0.03-5.03-0.06-7.54-0.08l-0.7-0.01l6.22-9.1L273.6,185.83z M265.37,184.98
				c2.28,0.02,4.56,0.05,6.83,0.08l0.32,0l-2.54-6.83L265.37,184.98z"/>
		</g>
		<g>
			<path class="st4" d="M306.3,99.26h-21.9l7.37-10.78l13.4,7.74L306.3,99.26z M285.83,98.51h19.4l-0.66-1.78L292,89.47
				L285.83,98.51z"/>
		</g>
		<g>
			<path class="st4" d="M241.98,185.73l-5.88-15.8l11.04-16.16h14.54l8.82,23.7l-5.64,8.25l-0.2,0c-7.08-0.05-14.41-0.05-22.42,0
				L241.98,185.73z M236.93,170.04l5.56,14.94c7.83-0.05,15.03-0.05,21.97,0l5.2-7.6l-8.5-22.85h-13.62L236.93,170.04z"/>
		</g>
		<g>
			<path class="st4" d="M285.31,99.26h-12.27l-9.62-25.85l0.64-0.93l28.36,16.38L285.31,99.26z M273.57,98.51h11.35l6.43-9.41
				l-27.06-15.62l-0.03,0.04L273.57,98.51z"/>
		</g>
		<g>
			<polygon class="st4" points="263.74,74.27 262.81,71.75 264.71,72.85 			"/>
		</g>
		<g>
			<path class="st4" d="M241.38,99.26h-31.59l-0.95-2.54l10.22-14.89l12.98-7.66L241.38,99.26z M210.31,98.51h29.99l-8.65-23.24
				l-12.13,7.16l-9.84,14.39L210.31,98.51z"/>
		</g>
		<g>
			<path class="st4" d="M246.67,99.26h-6.08l-9.19-24.71l12.63-7.45c3.28-1.93,7.36-1.95,10.66-0.05l9.15,5.28l0.44,1.17
				L246.67,99.26z M241.11,98.51h5.16l17.16-25.1l-0.21-0.56l-8.92-5.15c-3.06-1.77-6.86-1.75-9.9,0.05l-12.09,7.13L241.11,98.51z"
				/>
		</g>
		<g>
			<path class="st4" d="M209.17,97.58l-3.02-8.13l14.38-8.48L209.17,97.58z M207.06,89.78l2.3,6.18L218,83.32L207.06,89.78z"/>
		</g>
		<g>
			<path class="st4" d="M11.4,204.34l18.65-11l2.31,6.2l-1.31,1.92l-0.16,0.02c-6.56,0.93-12.31,1.77-17.56,2.57L11.4,204.34z
				 M29.66,194.43l-14.54,8.58c4.69-0.71,9.79-1.45,15.5-2.25l0.91-1.32L29.66,194.43z"/>
		</g>
		<g>
			<path class="st4" d="M30.04,201.6l2-2.92l0.93,2.51L30.04,201.6z M31.84,200.29l-0.22,0.32l0.33-0.04L31.84,200.29z"/>
		</g>
		<g>
			<path class="st4" d="M91.13,194.11l-2.89-7.77h21.61l-4.33,6.34l-0.18,0.02c-4.64,0.44-9.28,0.9-13.92,1.38L91.13,194.11z
				 M89.32,187.09l2.31,6.21c4.48-0.46,8.97-0.91,13.46-1.33l3.33-4.88H89.32z"/>
		</g>
		<g>
			<path class="st4" d="M72.42,196.15l6.7-9.8h9.92l2.86,7.69l-0.48,0.05c-6.58,0.68-12.53,1.33-18.18,1.97L72.42,196.15z
				 M79.52,187.09l-5.55,8.12c5.27-0.6,10.81-1.2,16.89-1.83l-2.34-6.29H79.52z"/>
		</g>
		<g>
			<path class="st4" d="M32.22,201.29l-0.69-1.86l8.05-11.72l15.73-9.28l7.04,18.91l-0.47,0.06c-9.75,1.19-19.62,2.48-29.35,3.85
				L32.22,201.29z M32.36,199.54l0.35,0.93c9.48-1.33,19.1-2.59,28.6-3.75l-3.58-9.63H42.11l-2.08,1.23L32.36,199.54z M43.38,186.34
				h14.06l-2.53-6.8L43.38,186.34z"/>
		</g>
		<g>
			<path class="st4" d="M61.57,197.44l-4.13-11.1h22.58l-6.62,9.69l-0.17,0.02c-3.79,0.44-7.58,0.89-11.37,1.35L61.57,197.44z
				 M58.52,187.09l3.55,9.53c3.63-0.44,7.27-0.88,10.91-1.3l5.63-8.24H58.52z"/>
		</g>
		<g>
			<path class="st4" d="M85.34,178.57l-5.45-14.64l17.2-10.15h5.19L85.34,178.57z M80.82,164.26l4.72,12.69l15.32-22.42H97.3
				L80.82,164.26z"/>
		</g>
		<g>
			<path class="st4" d="M107.99,154.53h-7.13l3.48-5.02l1.46-0.86L107.99,154.53z M102.28,153.78h4.63l-1.5-4.03l-0.62,0.36
				L102.28,153.78z"/>
		</g>
		<g>
			<path class="st4" d="M101.77,154.53h-5.94l9.96-5.88L101.77,154.53z M98.57,153.78h2.8l1.89-2.77L98.57,153.78z"/>
		</g>
		<g>
			<path class="st4" d="M79.52,187.09H57.72l-3.08-8.27l25.91-15.28l5.31,14.27L79.52,187.09z M58.24,186.34h20.88l5.9-8.64
				l-4.86-13.06l-24.59,14.51L58.24,186.34z"/>
		</g>
		<g>
			<path class="st4" d="M120.88,191.31l-1.85-4.97h29.46l-2.05,3l-0.18,0.01c-8.03,0.55-16.24,1.18-25.1,1.93L120.88,191.31z
				 M120.11,187.09l1.27,3.42c8.69-0.73,16.76-1.35,24.65-1.9l1.04-1.53H120.11z"/>
		</g>
		<g>
			<path class="st4" d="M104.54,192.78l4.4-6.43h10.89l1.82,4.9l-0.49,0.04c-5.37,0.45-10.7,0.93-15.83,1.42L104.54,192.78z
				 M109.33,187.09l-3.27,4.79c4.73-0.44,9.61-0.88,14.54-1.3l-1.3-3.49H109.33z"/>
		</g>
		<g>
			<polygon class="st4" points="169.29,155.92 168.5,153.78 170.75,153.78 			"/>
		</g>
		<g>
			<path class="st4" d="M211.38,186.26l-8.84-23.76l5.96-8.72h22.39l6.05,16.26l-10.86,15.89l-0.19,0
				c-4.78,0.08-9.57,0.19-14.23,0.31L211.38,186.26z M203.37,162.6l8.52,22.89c4.52-0.12,9.15-0.22,13.78-0.3l10.42-15.25
				l-5.73-15.41h-21.48L203.37,162.6z"/>
		</g>
		<g>
			<path class="st4" d="M247.53,154.53h-17.17l-7.89-21.2l6.94-10.15h20.87l6.59,17.7L247.53,154.53z M230.88,153.78h16.26
				l8.89-13.01l-6.27-16.85h-19.96l-6.5,9.51L230.88,153.78z"/>
		</g>
		<g>
			<path class="st4" d="M236.42,170.8l-6.33-17.02h17.96L236.42,170.8z M231.16,154.53l5.45,14.65l10.01-14.65H231.16z"/>
		</g>
		<g>
			<path class="st4" d="M261.96,154.53h-15.33l9.92-14.52L261.96,154.53z M248.05,153.78h12.83l-4.52-12.15L248.05,153.78z"/>
		</g>
		<g>
			<path class="st4" d="M294.42,154.53h-9.14l5.92-8.66L294.42,154.53z M286.7,153.78h6.64l-2.34-6.29L286.7,153.78z"/>
		</g>
		<g>
			<path class="st4" d="M286.18,154.53h-25.03l-5.12-13.76l12.03-17.6h14.68l8.77,23.56L286.18,154.53z M261.68,153.78h24.11
				l4.89-7.15l-8.45-22.71h-13.77l-11.58,16.95L261.68,153.78z"/>
		</g>
		<g>
			<path class="st4" d="M170.24,154.53h-1.46l-11.67-31.36h31.59l1.05,2.82L170.24,154.53z M169.3,153.78h0.55l19.07-27.89
				l-0.73-1.96h-29.99L169.3,153.78z"/>
		</g>
		<g>
			<path class="st4" d="M202.85,163.36l-3.56-9.58h10.11L202.85,163.36z M200.37,154.53l2.68,7.21l4.93-7.21H200.37z"/>
		</g>
		<g>
			<path class="st4" d="M149.35,185.08l-11.65-31.3h31.59l0.51,1.38l-0.11,0.16L149.35,185.08z M138.78,154.53l10.77,28.94
				l19.42-28.41l-0.2-0.52H138.78z"/>
		</g>
		<g>
			<path class="st4" d="M324.83,154.53h-31.22l-2.94-7.9l16.03-23.46h8.5l10.95,29.42L324.83,154.53z M294.14,153.78h30.3l0.88-1.29
				l-10.63-28.57h-7.58l-15.59,22.81L294.14,153.78z"/>
		</g>
		<g>
			<path class="st4" d="M208.89,154.53h-9.32l-10.66-28.64l1.86-2.71h28.73l3.82,10.26L208.89,154.53z M200.09,153.78h8.4
				l13.98-20.45l-3.5-9.4h-27.81l-1.41,2.07L200.09,153.78z"/>
		</g>
		<g>
			<path class="st4" d="M200.37,154.53h-31.04l20.1-29.4L200.37,154.53z M170.75,153.78h28.54l-10.06-27.03L170.75,153.78z"/>
		</g>
		<g>
			<path class="st4" d="M358.82,154.53h-32.74l-0.76-2.04l20.04-29.32h1.79L358.82,154.53z M326.6,153.78h31.14l-11.11-29.86h-0.87
				l-19.6,28.67L326.6,153.78z"/>
		</g>
		<g>
			<path class="st4" d="M326.88,154.53h-2.95l1.91-2.8L326.88,154.53z M325.34,153.78h0.45l-0.16-0.43L325.34,153.78z"/>
		</g>
		<g>
			<path class="st4" d="M457.17,187.09h-27.85L425.19,176l5.14-7.52l28.36,16.38L457.17,187.09z M429.84,186.34h26.93l0.85-1.24
				l-27.06-15.62l-4.53,6.63L429.84,186.34z"/>
		</g>
		<g>
			<path class="st4" d="M430.12,187.09h-12.51l8.1-11.85L430.12,187.09z M419.03,186.34h10.01l-3.53-9.48L419.03,186.34z"/>
		</g>
		<g>
			<path class="st4" d="M340.49,188.17l-1.94-0.12l-0.64-1.71h3.82L340.49,188.17z M339.08,187.33l1.02,0.06l0.21-0.3h-1.32
				L339.08,187.33z"/>
		</g>
		<g>
			<path class="st4" d="M339.37,188.1l-0.57-0.03c-10.75-0.6-21.85-1.1-33-1.48l-0.25-0.01l-1.24-3.34l20.14-29.46h2.16
				L339.37,188.1z M334.68,187.09c1.2,0.06,2.39,0.13,3.59,0.19l-0.07-0.19H334.68z M306.07,185.85c6.56,0.23,13.11,0.49,19.58,0.79
				v-0.3h12.27l-11.84-31.81h-1.24l-19.69,28.81L306.07,185.85z"/>
		</g>
		<g>
			<path class="st4" d="M306.35,186.61l-4.27-0.13l2.73-3.99L306.35,186.61z M303.48,185.77l1.78,0.05l-0.64-1.72L303.48,185.77z"/>
		</g>
		<g>
			<path class="st4" d="M418.52,187.09h-16.54l-8.12-21.81l8.75-12.81l18.62,10.75l4.79,12.87L418.52,187.09z M402.5,186.34h15.62
				l7.07-10.34l-4.56-12.26l-16.28-9.4v0.18h-2.23l-7.42,10.86L402.5,186.34z M402.64,153.78h0.73l-0.53-0.3L402.64,153.78z"/>
		</g>
		<g>
			<path class="st4" d="M341.22,187.09h-3.03l-12.4-33.31h32.74l1.92,5.17L341.22,187.09z M338.71,186.34h2.11l18.79-27.5
				l-1.61-4.31h-31.14L338.71,186.34z"/>
		</g>
		<g>
			<path class="st4" d="M302.98,186.5l-0.21-0.01c-9.88-0.32-19.88-0.54-29.71-0.67l-0.26,0l-3.14-8.44l16.13-23.6h8.35l11,29.56
				L302.98,186.5z M273.32,185.08c9.69,0.13,19.54,0.35,29.27,0.66l1.71-2.5l-10.68-28.71h-7.43l-15.69,22.95L273.32,185.08z"/>
		</g>
		<g>
			<path class="st4" d="M379.87,187.09h-9.74l-10.51-28.25l3.46-5.06h27.3l4.32,11.61L379.87,187.09z M370.66,186.34h8.82
				l14.39-21.06l-4-10.76h-26.38l-3.02,4.42L370.66,186.34z"/>
		</g>
		<g>
			<path class="st4" d="M402.78,187.09h-23.82l15.42-22.56L402.78,187.09z M380.38,186.34h21.32l-7.52-20.2L380.38,186.34z"/>
		</g>
		<g>
			<path class="st4" d="M370.93,187.09h-30.62l19.83-29.01L370.93,187.09z M341.74,186.34h28.12l-9.91-26.64L341.74,186.34z"/>
		</g>
	</g>
</g>
</svg>
